<svg xmlns="http://www.w3.org/2000/svg" xmlns:xlink="http://www.w3.org/1999/xlink" width="200" zoomAndPan="magnify" viewBox="0 0 150 74.999997" height="100" preserveAspectRatio="xMidYMid meet" version="1.0"><defs><g/><clipPath id="a43aaa9044"><path d="M 0 47 L 150 47 L 150 62.015625 L 0 62.015625 Z M 0 47 " clip-rule="nonzero"/></clipPath></defs><rect x="-15" width="180" fill="#ffffff" y="-7.5" height="89.999996" fill-opacity="1"/><rect x="-15" width="180" fill="#ffffff" y="-7.5" height="89.999996" fill-opacity="1"/><rect x="-15" width="180" fill="#d9d9d9" y="-7.5" height="89.999996" fill-opacity="1"/><g fill="#2b8c55" fill-opacity="1"><g transform="translate(35.39413, 68.37961)"><g><path d="M 47.9375 -61.421875 L 47.9375 -43.171875 L 44.375 -43.265625 L 44.1875 -47.859375 C 36.914062 -52.441406 29.914062 -56.109375 23.1875 -58.859375 L 23.1875 -31.171875 L 40.328125 -31.171875 L 40.328125 -27.78125 L 23.1875 -27.78125 L 23.1875 -3.296875 L 33 -3.203125 L 33 0 L 3.296875 0 L 3.296875 -3.203125 L 7.796875 -3.296875 L 7.796875 -58.125 L 3.296875 -58.21875 L 3.296875 -61.421875 Z M 47.9375 -61.421875 "/></g></g></g><g fill="#2b8c55" fill-opacity="1"><g transform="translate(83.792792, 68.37961)"><g><path d="M 3.296875 -3.203125 L 7.796875 -3.296875 L 7.796875 -58.125 L 3.296875 -58.21875 L 3.296875 -61.421875 L 27.5 -61.421875 L 27.5 -58.21875 L 23.015625 -58.125 L 23.015625 -3.296875 L 27.5 -3.203125 L 27.5 0 L 3.296875 0 Z M 3.296875 -3.203125 "/></g></g></g><g clip-path="url(#a43aaa9044)"><path fill="#d9d9d9" d="M -32.203125 47 L 182.203125 47 L 182.203125 62.015625 L -32.203125 62.015625 L -32.203125 47 " fill-opacity="1" fill-rule="nonzero"/></g><g fill="#008037" fill-opacity="1"><g transform="translate(34.08429, 57.658702)"><g><path d="M 0.484375 -0.28125 L 0.859375 -0.25 C 0.972656 -0.25 1.03125 -0.320312 1.03125 -0.46875 L 1.03125 -5.234375 C 1.03125 -5.367188 0.976562 -5.4375 0.875 -5.4375 L 0.84375 -5.4375 L 0.484375 -5.40625 L 0.484375 -5.703125 L 4.625 -5.703125 C 4.695312 -5.703125 4.742188 -5.703125 4.765625 -5.703125 L 4.765625 -4.234375 L 4.5 -4.234375 C 4.5 -4.648438 4.390625 -4.953125 4.171875 -5.140625 C 3.960938 -5.335938 3.625 -5.4375 3.15625 -5.4375 L 2.03125 -5.4375 C 1.957031 -5.4375 1.921875 -5.394531 1.921875 -5.3125 L 1.921875 -3 L 2.640625 -3 C 2.867188 -3 3.050781 -3.085938 3.1875 -3.265625 C 3.320312 -3.441406 3.390625 -3.679688 3.390625 -3.984375 L 3.640625 -3.984375 L 3.640625 -1.78125 L 3.390625 -1.78125 C 3.390625 -2.070312 3.316406 -2.300781 3.171875 -2.46875 C 3.035156 -2.644531 2.859375 -2.734375 2.640625 -2.734375 L 1.921875 -2.734375 L 1.921875 -0.453125 C 1.921875 -0.398438 1.9375 -0.351562 1.96875 -0.3125 C 2.007812 -0.269531 2.050781 -0.25 2.09375 -0.25 L 2.59375 -0.28125 L 2.59375 0 L 0.484375 0 Z M 0.484375 -0.28125 "/></g></g></g><g fill="#008037" fill-opacity="1"><g transform="translate(44.863161, 57.658702)"><g><path d="M 0.484375 -0.28125 L 0.84375 -0.25 C 0.96875 -0.25 1.03125 -0.320312 1.03125 -0.46875 L 1.03125 -5.234375 C 1.03125 -5.285156 1.015625 -5.332031 0.984375 -5.375 C 0.953125 -5.414062 0.90625 -5.4375 0.84375 -5.4375 L 0.484375 -5.40625 L 0.484375 -5.703125 L 2.484375 -5.703125 L 2.484375 -5.40625 L 2.109375 -5.4375 L 2.09375 -5.4375 C 2.039062 -5.4375 2 -5.414062 1.96875 -5.375 C 1.9375 -5.332031 1.921875 -5.285156 1.921875 -5.234375 L 1.921875 -0.46875 C 1.921875 -0.320312 1.984375 -0.25 2.109375 -0.25 L 2.484375 -0.28125 L 2.484375 0 L 0.484375 0 Z M 0.484375 -0.28125 "/></g></g></g><g fill="#008037" fill-opacity="1"><g transform="translate(53.55118, 57.658702)"><g><path d="M 5.890625 -5.703125 L 5.890625 -5.40625 L 5.515625 -5.4375 L 5.5 -5.4375 C 5.394531 -5.4375 5.34375 -5.367188 5.34375 -5.234375 L 5.34375 0.0625 L 5.046875 0.0625 L 1.3125 -5.015625 L 1.3125 -0.46875 C 1.3125 -0.320312 1.375 -0.25 1.5 -0.25 L 1.96875 -0.28125 L 1.96875 0 L 0.421875 0 L 0.421875 -0.28125 L 0.796875 -0.25 C 0.929688 -0.25 1 -0.320312 1 -0.46875 L 1 -5.234375 C 1 -5.285156 0.976562 -5.332031 0.9375 -5.375 C 0.90625 -5.414062 0.859375 -5.4375 0.796875 -5.4375 L 0.421875 -5.40625 L 0.421875 -5.703125 L 1.90625 -5.703125 L 5.015625 -1.484375 L 5.015625 -5.234375 C 5.015625 -5.367188 4.957031 -5.4375 4.84375 -5.4375 L 4.828125 -5.4375 L 4.359375 -5.40625 L 4.359375 -5.703125 Z M 5.890625 -5.703125 "/></g></g></g><g fill="#008037" fill-opacity="1"><g transform="translate(65.599852, 57.658702)"><g><path d="M 5.921875 -0.28125 L 5.921875 0 L 3.40625 0 L 3.40625 -0.28125 L 3.859375 -0.25 C 4.054688 -0.238281 4.15625 -0.316406 4.15625 -0.484375 C 4.15625 -0.597656 4.125 -0.722656 4.0625 -0.859375 L 3.59375 -1.984375 L 1.359375 -1.984375 L 0.921875 -0.921875 C 0.835938 -0.722656 0.796875 -0.5625 0.796875 -0.4375 C 0.796875 -0.300781 0.863281 -0.238281 1 -0.25 L 1.453125 -0.28125 L 1.453125 0 L -0.1875 0 L -0.1875 -0.28125 L 0.0625 -0.25 L 0.09375 -0.25 C 0.21875 -0.25 0.320312 -0.3125 0.40625 -0.4375 C 0.5 -0.582031 0.597656 -0.769531 0.703125 -1 L 2.6875 -5.796875 L 2.9375 -5.796875 L 4.953125 -0.96875 C 5.046875 -0.738281 5.140625 -0.554688 5.234375 -0.421875 C 5.316406 -0.304688 5.425781 -0.25 5.5625 -0.25 L 5.609375 -0.25 Z M 1.484375 -2.25 L 3.46875 -2.25 L 2.46875 -4.65625 Z M 1.484375 -2.25 "/></g></g></g><g fill="#008037" fill-opacity="1"><g transform="translate(77.066137, 57.658702)"><g><path d="M 5.890625 -5.703125 L 5.890625 -5.40625 L 5.515625 -5.4375 L 5.5 -5.4375 C 5.394531 -5.4375 5.34375 -5.367188 5.34375 -5.234375 L 5.34375 0.0625 L 5.046875 0.0625 L 1.3125 -5.015625 L 1.3125 -0.46875 C 1.3125 -0.320312 1.375 -0.25 1.5 -0.25 L 1.96875 -0.28125 L 1.96875 0 L 0.421875 0 L 0.421875 -0.28125 L 0.796875 -0.25 C 0.929688 -0.25 1 -0.320312 1 -0.46875 L 1 -5.234375 C 1 -5.285156 0.976562 -5.332031 0.9375 -5.375 C 0.90625 -5.414062 0.859375 -5.4375 0.796875 -5.4375 L 0.421875 -5.40625 L 0.421875 -5.703125 L 1.90625 -5.703125 L 5.015625 -1.484375 L 5.015625 -5.234375 C 5.015625 -5.367188 4.957031 -5.4375 4.84375 -5.4375 L 4.828125 -5.4375 L 4.359375 -5.40625 L 4.359375 -5.703125 Z M 5.890625 -5.703125 "/></g></g></g><g fill="#008037" fill-opacity="1"><g transform="translate(89.114811, 57.658702)"><g><path d="M 4.703125 -1.59375 L 4.625 0.03125 C 4.539062 0.0078125 4.179688 0 3.546875 0 L 0.328125 0 L 0.328125 -0.25 L 3.390625 -5.4375 L 1.9375 -5.4375 C 1.476562 -5.4375 1.140625 -5.335938 0.921875 -5.140625 C 0.703125 -4.941406 0.59375 -4.640625 0.59375 -4.234375 L 0.328125 -4.234375 L 0.328125 -5.734375 L 0.828125 -5.71875 C 1.054688 -5.707031 1.238281 -5.703125 1.375 -5.703125 L 4.4375 -5.703125 L 4.4375 -5.46875 L 1.34375 -0.25 L 3 -0.25 C 3.445312 -0.25 3.796875 -0.367188 4.046875 -0.609375 C 4.304688 -0.847656 4.4375 -1.175781 4.4375 -1.59375 Z M 4.703125 -1.59375 "/></g></g></g><g fill="#008037" fill-opacity="1"><g transform="translate(99.73138, 57.658702)"><g><path d="M 5.921875 -0.28125 L 5.921875 0 L 3.40625 0 L 3.40625 -0.28125 L 3.859375 -0.25 C 4.054688 -0.238281 4.15625 -0.316406 4.15625 -0.484375 C 4.15625 -0.597656 4.125 -0.722656 4.0625 -0.859375 L 3.59375 -1.984375 L 1.359375 -1.984375 L 0.921875 -0.921875 C 0.835938 -0.722656 0.796875 -0.5625 0.796875 -0.4375 C 0.796875 -0.300781 0.863281 -0.238281 1 -0.25 L 1.453125 -0.28125 L 1.453125 0 L -0.1875 0 L -0.1875 -0.28125 L 0.0625 -0.25 L 0.09375 -0.25 C 0.21875 -0.25 0.320312 -0.3125 0.40625 -0.4375 C 0.5 -0.582031 0.597656 -0.769531 0.703125 -1 L 2.6875 -5.796875 L 2.9375 -5.796875 L 4.953125 -0.96875 C 5.046875 -0.738281 5.140625 -0.554688 5.234375 -0.421875 C 5.316406 -0.304688 5.425781 -0.25 5.5625 -0.25 L 5.609375 -0.25 Z M 1.484375 -2.25 L 3.46875 -2.25 L 2.46875 -4.65625 Z M 1.484375 -2.25 "/></g></g></g><g fill="#008037" fill-opacity="1"><g transform="translate(111.197661, 57.658702)"><g><path d="M 0.703125 -1.9375 C 0.847656 -0.757812 1.429688 -0.171875 2.453125 -0.171875 C 2.773438 -0.171875 3.03125 -0.273438 3.21875 -0.484375 C 3.40625 -0.691406 3.5 -0.96875 3.5 -1.3125 C 3.5 -1.5625 3.414062 -1.78125 3.25 -1.96875 C 3.082031 -2.15625 2.851562 -2.304688 2.5625 -2.421875 L 1.578125 -2.8125 C 1.234375 -2.957031 0.972656 -3.144531 0.796875 -3.375 C 0.617188 -3.613281 0.53125 -3.890625 0.53125 -4.203125 C 0.53125 -4.492188 0.597656 -4.757812 0.734375 -5 C 0.867188 -5.238281 1.066406 -5.429688 1.328125 -5.578125 C 1.597656 -5.722656 1.921875 -5.796875 2.296875 -5.796875 C 2.503906 -5.796875 2.675781 -5.773438 2.8125 -5.734375 C 2.957031 -5.703125 3.097656 -5.660156 3.234375 -5.609375 C 3.378906 -5.566406 3.476562 -5.535156 3.53125 -5.515625 C 3.632812 -5.472656 3.722656 -5.453125 3.796875 -5.453125 C 3.910156 -5.453125 4 -5.46875 4.0625 -5.5 C 4.039062 -5.34375 4.03125 -5.101562 4.03125 -4.78125 C 4.03125 -4.59375 4.035156 -4.457031 4.046875 -4.375 C 4.054688 -4.289062 4.070312 -4.210938 4.09375 -4.140625 L 3.84375 -4.140625 C 3.84375 -4.554688 3.707031 -4.890625 3.4375 -5.140625 C 3.164062 -5.398438 2.828125 -5.53125 2.421875 -5.53125 C 2.085938 -5.53125 1.816406 -5.441406 1.609375 -5.265625 C 1.410156 -5.085938 1.3125 -4.832031 1.3125 -4.5 C 1.3125 -4.289062 1.382812 -4.101562 1.53125 -3.9375 C 1.675781 -3.769531 1.878906 -3.632812 2.140625 -3.53125 L 3.015625 -3.171875 C 3.503906 -2.984375 3.847656 -2.769531 4.046875 -2.53125 C 4.253906 -2.289062 4.359375 -1.984375 4.359375 -1.609375 C 4.359375 -1.273438 4.273438 -0.976562 4.109375 -0.71875 C 3.953125 -0.457031 3.734375 -0.253906 3.453125 -0.109375 C 3.179688 0.0234375 2.882812 0.09375 2.5625 0.09375 C 2.363281 0.09375 2.191406 0.0820312 2.046875 0.0625 C 1.898438 0.0507812 1.742188 0.0195312 1.578125 -0.03125 C 1.234375 -0.125 0.984375 -0.171875 0.828125 -0.171875 C 0.765625 -0.171875 0.703125 -0.164062 0.640625 -0.15625 C 0.578125 -0.144531 0.53125 -0.132812 0.5 -0.125 C 0.519531 -0.257812 0.53125 -0.523438 0.53125 -0.921875 C 0.53125 -1.429688 0.503906 -1.769531 0.453125 -1.9375 Z M 0.703125 -1.9375 "/></g></g></g></svg>